[img]http://hostpicturefree.com/images/bannerlnl.gif[/img]

Cover:

[img]http://ia.media-imdb.com/images/M/MV5BMTM2NjgyMjI3OV5BMl5BanBnXkFtZTcwMDkxMjIyOA@@._V1._SY317_.jpg[/img]

Release info:

General
Format                                   : Matroska
Format version                           : Version 2
File size                                : 695 MiB
Duration                                 : 1h 42mn
Overall bit rate                         : 946 Kbps


Video
ID                                       : 1
Format                                   : MPEG-4 Visual
Format profile                           : Advanced Simple@L5
Format settings, BVOP                    : Yes
Format settings, QPel                    : No
Format settings, GMC                     : No warppoints
Format settings, Matrix                  : Custom
Codec ID                                 : V_MS/VFW/FOURCC / XVID
Codec ID/Hint                            : XviD
Duration                                 : 1h 42mn
Bit rate                                 : 799 Kbps
Width                                    : 672 pixels
Height                                   : 368 pixels
Display aspect ratio                     : 1.85:1
Frame rate mode                          : Constant
Frame rate                               : 23.976 fps
Color space                              : YUV
Chroma subsampling                       : 4:2:0
Bit depth                                : 8 bits
Scan type                                : Progressive
Compression mode                         : Lossy
Bits/(Pixel*Frame)                       : 0.135
Stream size                              : 587 MiB (84%)
Language                                 : English
Default                                  : Yes
Forced                                   : No

Audio
ID                                       : 2
Format                                   : AC-3
Format/Info                              : Audio Coding 3
Mode extension                           : CM (complete main)
Format settings, Endianness              : Big
Muxing mode                              : Header stripping
Codec ID                                 : A_AC3
Duration                                 : 1h 42mn
Bit rate mode                            : Constant
Bit rate                                 : 128 Kbps
Channel(s)                               : 6 channels
Channel positions                        : Front: L C R, Side: L R, LFE
Sampling rate                            : 48.0 KHz
Bit depth                                : 16 bits
Compression mode                         : Lossy
Stream size                              : 94.0 MiB (14%)
Language                                 : English
Default                                  : Yes
Forced                                   : No

Text
ID                                       : 3
Format                                   : UTF-8
Codec ID                                 : S_TEXT/UTF8
Codec ID/Info                            : UTF-8 Plain Text
Language                                 : English
Default                                  : Yes
Forced                                   : No



Source:
credit to original movie ripper UNiQUE (Thanks)

IMDB Info:

A writer at the peak of his literary success discovers the steep price he must pay for stealing another man's work.

Directors: Brian Klugman, Lee Sternthal
Writers: Brian Klugman (screenplay), Lee Sternthal (screenplay)
Stars: Bradley Cooper, Dennis Quaid and Olivia Wilde 

Genres: Drama | Romance
 
http://www.imdb.com/title/tt1840417/

Screen Shot:

 
http://www.shotpix.com/images/72483620882693764087.png 
http://www.shotpix.com/images/61945754540040915692.png 
http://www.shotpix.com/images/37476016262751426864.png 
http://www.shotpix.com/images/13480253914309115125.png 
http://www.shotpix.com/images/11926727132081580157.png 
http://www.shotpix.com/images/07046810780970018066.png